<mxfile host="app.diagrams.net" modified="2021-09-02T08:31:35.209Z" agent="5.0 (Macintosh; Intel Mac OS X 10_15_7) AppleWebKit/537.36 (KHTML, like Gecko) Chrome/90.0.4430.212 Safari/537.36 Edg/90.0.818.66" etag="jAorsDvGzws39tLIotNQ" version="15.0.2" type="github">
  <diagram id="C5RBs43oDa-KdzZeNtuy" name="Page-1">
    <mxGraphModel dx="1376" dy="1938" grid="1" gridSize="10" guides="1" tooltips="1" connect="1" arrows="1" fold="1" page="1" pageScale="1" pageWidth="827" pageHeight="1169" math="0" shadow="0">
      <root>
        <mxCell id="WIyWlLk6GJQsqaUBKTNV-0" />
        <mxCell id="WIyWlLk6GJQsqaUBKTNV-1" parent="WIyWlLk6GJQsqaUBKTNV-0" />
        <mxCell id="BaY0gyDMzciejpsv58w8-12" style="edgeStyle=orthogonalEdgeStyle;rounded=0;orthogonalLoop=1;jettySize=auto;html=1;entryX=0.5;entryY=0;entryDx=0;entryDy=0;" parent="WIyWlLk6GJQsqaUBKTNV-1" source="BaY0gyDMzciejpsv58w8-3" target="BaY0gyDMzciejpsv58w8-4" edge="1">
          <mxGeometry relative="1" as="geometry" />
        </mxCell>
        <mxCell id="BaY0gyDMzciejpsv58w8-11" style="edgeStyle=orthogonalEdgeStyle;rounded=0;orthogonalLoop=1;jettySize=auto;html=1;" parent="WIyWlLk6GJQsqaUBKTNV-1" source="BaY0gyDMzciejpsv58w8-4" target="BaY0gyDMzciejpsv58w8-5" edge="1">
          <mxGeometry relative="1" as="geometry" />
        </mxCell>
        <mxCell id="BaY0gyDMzciejpsv58w8-4" value="select * from mem_tier where&amp;nbsp;NEXT_ASSESS_DT&amp;nbsp; &amp;lt; now() and active_flg =&amp;nbsp; &#39;Y&#39;&amp;nbsp; and&amp;nbsp; qual_flg = &#39;Y&#39;" style="rounded=1;whiteSpace=wrap;html=1;" parent="WIyWlLk6GJQsqaUBKTNV-1" vertex="1">
          <mxGeometry x="110" y="340" width="160" height="70" as="geometry" />
        </mxCell>
        <mxCell id="BaY0gyDMzciejpsv58w8-14" style="edgeStyle=orthogonalEdgeStyle;rounded=0;orthogonalLoop=1;jettySize=auto;html=1;" parent="WIyWlLk6GJQsqaUBKTNV-1" source="BaY0gyDMzciejpsv58w8-5" target="BaY0gyDMzciejpsv58w8-13" edge="1">
          <mxGeometry relative="1" as="geometry" />
        </mxCell>
        <mxCell id="BaY0gyDMzciejpsv58w8-5" value="kafka" style="shape=cylinder3;whiteSpace=wrap;html=1;boundedLbl=1;backgroundOutline=1;size=15;" parent="WIyWlLk6GJQsqaUBKTNV-1" vertex="1">
          <mxGeometry x="160" y="470" width="60" height="100" as="geometry" />
        </mxCell>
        <mxCell id="BaY0gyDMzciejpsv58w8-6" value="topic: CDC_WTCPH_TIER_ASSESSMENT" style="text;html=1;strokeColor=none;align=center;verticalAlign=bottom;whiteSpace=wrap;rounded=0;" parent="WIyWlLk6GJQsqaUBKTNV-1" vertex="1">
          <mxGeometry x="320" y="510" width="40" height="20" as="geometry" />
        </mxCell>
        <mxCell id="BaY0gyDMzciejpsv58w8-18" style="edgeStyle=orthogonalEdgeStyle;rounded=0;orthogonalLoop=1;jettySize=auto;html=1;entryX=0;entryY=0.5;entryDx=0;entryDy=0;" parent="WIyWlLk6GJQsqaUBKTNV-1" source="BaY0gyDMzciejpsv58w8-13" target="BaY0gyDMzciejpsv58w8-17" edge="1">
          <mxGeometry relative="1" as="geometry" />
        </mxCell>
        <mxCell id="BaY0gyDMzciejpsv58w8-13" value="&amp;nbsp;consume msg" style="rounded=1;whiteSpace=wrap;html=1;fillColor=none;align=center;verticalAlign=middle;" parent="WIyWlLk6GJQsqaUBKTNV-1" vertex="1">
          <mxGeometry x="130" y="675" width="120" height="60" as="geometry" />
        </mxCell>
        <mxCell id="BaY0gyDMzciejpsv58w8-15" value="poll msg" style="text;strokeColor=none;fillColor=none;align=left;verticalAlign=top;spacingLeft=4;spacingRight=4;overflow=hidden;rotatable=0;points=[[0,0.5],[1,0.5]];portConstraint=eastwest;" parent="WIyWlLk6GJQsqaUBKTNV-1" vertex="1">
          <mxGeometry x="190" y="585" width="60" height="26" as="geometry" />
        </mxCell>
        <mxCell id="BaY0gyDMzciejpsv58w8-16" value="send msg" style="text;strokeColor=none;fillColor=none;align=left;verticalAlign=top;spacingLeft=4;spacingRight=4;overflow=hidden;rotatable=0;points=[[0,0.5],[1,0.5]];portConstraint=eastwest;" parent="WIyWlLk6GJQsqaUBKTNV-1" vertex="1">
          <mxGeometry x="200" y="420" width="60" height="26" as="geometry" />
        </mxCell>
        <mxCell id="BaY0gyDMzciejpsv58w8-26" style="edgeStyle=orthogonalEdgeStyle;rounded=0;orthogonalLoop=1;jettySize=auto;html=1;entryX=0;entryY=0.5;entryDx=0;entryDy=0;" parent="WIyWlLk6GJQsqaUBKTNV-1" source="BaY0gyDMzciejpsv58w8-17" target="BaY0gyDMzciejpsv58w8-22" edge="1">
          <mxGeometry relative="1" as="geometry" />
        </mxCell>
        <mxCell id="BaY0gyDMzciejpsv58w8-17" value="msg 写入 event_log" style="rounded=1;whiteSpace=wrap;html=1;fillColor=none;align=center;verticalAlign=middle;" parent="WIyWlLk6GJQsqaUBKTNV-1" vertex="1">
          <mxGeometry x="340" y="675" width="120" height="60" as="geometry" />
        </mxCell>
        <mxCell id="BaY0gyDMzciejpsv58w8-48" style="edgeStyle=orthogonalEdgeStyle;rounded=0;orthogonalLoop=1;jettySize=auto;html=1;exitX=1;exitY=0;exitDx=0;exitDy=0;" parent="WIyWlLk6GJQsqaUBKTNV-1" source="BaY0gyDMzciejpsv58w8-19" edge="1">
          <mxGeometry relative="1" as="geometry">
            <mxPoint x="1410" y="-80" as="targetPoint" />
          </mxGeometry>
        </mxCell>
        <mxCell id="BaY0gyDMzciejpsv58w8-19" value="" style="swimlane;startSize=0;fillColor=none;align=center;verticalAlign=middle;" parent="WIyWlLk6GJQsqaUBKTNV-1" vertex="1">
          <mxGeometry x="80" y="-40" width="1330" height="480" as="geometry" />
        </mxCell>
        <mxCell id="BaY0gyDMzciejpsv58w8-0" value="assessTierSchedule&amp;nbsp;Job&lt;br&gt;（每月 1 号 运行）" style="rounded=0;whiteSpace=wrap;html=1;" parent="BaY0gyDMzciejpsv58w8-19" vertex="1">
          <mxGeometry x="35" y="50" width="150" height="60" as="geometry" />
        </mxCell>
        <mxCell id="BaY0gyDMzciejpsv58w8-20" value="Program Service" style="text;html=1;align=center;verticalAlign=middle;resizable=0;points=[];autosize=1;strokeColor=none;" parent="BaY0gyDMzciejpsv58w8-19" vertex="1">
          <mxGeometry x="530" y="260" width="100" height="20" as="geometry" />
        </mxCell>
        <mxCell id="BaY0gyDMzciejpsv58w8-51" style="edgeStyle=orthogonalEdgeStyle;rounded=0;orthogonalLoop=1;jettySize=auto;html=1;" parent="BaY0gyDMzciejpsv58w8-19" source="BaY0gyDMzciejpsv58w8-40" target="BaY0gyDMzciejpsv58w8-41" edge="1">
          <mxGeometry relative="1" as="geometry" />
        </mxCell>
        <mxCell id="BaY0gyDMzciejpsv58w8-40" value="consume kafka msg&lt;br&gt;insert&amp;nbsp; event&amp;nbsp; log" style="rounded=1;whiteSpace=wrap;html=1;fillColor=none;align=center;verticalAlign=middle;" parent="BaY0gyDMzciejpsv58w8-19" vertex="1">
          <mxGeometry x="1075" y="350" width="120" height="60" as="geometry" />
        </mxCell>
        <mxCell id="BaY0gyDMzciejpsv58w8-52" style="edgeStyle=orthogonalEdgeStyle;rounded=0;orthogonalLoop=1;jettySize=auto;html=1;" parent="BaY0gyDMzciejpsv58w8-19" source="BaY0gyDMzciejpsv58w8-41" target="BaY0gyDMzciejpsv58w8-44" edge="1">
          <mxGeometry relative="1" as="geometry" />
        </mxCell>
        <mxCell id="BaY0gyDMzciejpsv58w8-41" value="old mem-tier 改为 active_flg = N" style="rounded=1;whiteSpace=wrap;html=1;fillColor=none;align=center;verticalAlign=middle;" parent="BaY0gyDMzciejpsv58w8-19" vertex="1">
          <mxGeometry x="1075" y="210" width="120" height="60" as="geometry" />
        </mxCell>
        <mxCell id="BaY0gyDMzciejpsv58w8-53" style="edgeStyle=orthogonalEdgeStyle;rounded=0;orthogonalLoop=1;jettySize=auto;html=1;entryX=1;entryY=0.5;entryDx=0;entryDy=0;" parent="BaY0gyDMzciejpsv58w8-19" source="BaY0gyDMzciejpsv58w8-44" target="BaY0gyDMzciejpsv58w8-46" edge="1">
          <mxGeometry relative="1" as="geometry" />
        </mxCell>
        <mxCell id="BaY0gyDMzciejpsv58w8-44" value="insert new mem-tier" style="rounded=1;whiteSpace=wrap;html=1;fillColor=none;align=center;verticalAlign=middle;" parent="BaY0gyDMzciejpsv58w8-19" vertex="1">
          <mxGeometry x="1075" y="80" width="120" height="60" as="geometry" />
        </mxCell>
        <mxCell id="BaY0gyDMzciejpsv58w8-54" style="edgeStyle=orthogonalEdgeStyle;rounded=0;orthogonalLoop=1;jettySize=auto;html=1;entryX=1;entryY=0.5;entryDx=0;entryDy=0;" parent="BaY0gyDMzciejpsv58w8-19" source="BaY0gyDMzciejpsv58w8-46" target="BaY0gyDMzciejpsv58w8-45" edge="1">
          <mxGeometry relative="1" as="geometry" />
        </mxCell>
        <mxCell id="BaY0gyDMzciejpsv58w8-46" value="update member&amp;nbsp;PR_DOM_TIER_ID=tierId" style="rounded=1;whiteSpace=wrap;html=1;fillColor=none;align=center;verticalAlign=middle;" parent="BaY0gyDMzciejpsv58w8-19" vertex="1">
          <mxGeometry x="780" y="80" width="200" height="60" as="geometry" />
        </mxCell>
        <mxCell id="BaY0gyDMzciejpsv58w8-3" value="扫描 符合条件的TierClass" style="rounded=1;whiteSpace=wrap;html=1;" parent="BaY0gyDMzciejpsv58w8-19" vertex="1">
          <mxGeometry x="50" y="210" width="120" height="60" as="geometry" />
        </mxCell>
        <mxCell id="BaY0gyDMzciejpsv58w8-8" style="edgeStyle=orthogonalEdgeStyle;rounded=0;orthogonalLoop=1;jettySize=auto;html=1;entryX=0.5;entryY=0;entryDx=0;entryDy=0;" parent="BaY0gyDMzciejpsv58w8-19" source="BaY0gyDMzciejpsv58w8-0" target="BaY0gyDMzciejpsv58w8-3" edge="1">
          <mxGeometry relative="1" as="geometry" />
        </mxCell>
        <mxCell id="BaY0gyDMzciejpsv58w8-45" value="insert segment&lt;br&gt;CUSTOMER_LOY_TIER.LOUNGE_CD" style="rounded=1;whiteSpace=wrap;html=1;fillColor=none;align=center;verticalAlign=middle;" parent="BaY0gyDMzciejpsv58w8-19" vertex="1">
          <mxGeometry x="440" y="80" width="260" height="60" as="geometry" />
        </mxCell>
        <mxCell id="BaY0gyDMzciejpsv58w8-21" value="" style="swimlane;startSize=0;fillColor=none;align=center;verticalAlign=middle;" parent="WIyWlLk6GJQsqaUBKTNV-1" vertex="1">
          <mxGeometry x="80" y="590" width="1330" height="330" as="geometry" />
        </mxCell>
        <mxCell id="BaY0gyDMzciejpsv58w8-27" style="edgeStyle=orthogonalEdgeStyle;rounded=0;orthogonalLoop=1;jettySize=auto;html=1;" parent="BaY0gyDMzciejpsv58w8-21" source="BaY0gyDMzciejpsv58w8-22" target="BaY0gyDMzciejpsv58w8-23" edge="1">
          <mxGeometry relative="1" as="geometry" />
        </mxCell>
        <mxCell id="BaY0gyDMzciejpsv58w8-22" value="查询 program&amp;nbsp; attr defn" style="rounded=1;whiteSpace=wrap;html=1;fillColor=none;align=center;verticalAlign=middle;" parent="BaY0gyDMzciejpsv58w8-21" vertex="1">
          <mxGeometry x="450" y="85" width="120" height="60" as="geometry" />
        </mxCell>
        <mxCell id="BaY0gyDMzciejpsv58w8-35" style="edgeStyle=orthogonalEdgeStyle;rounded=0;orthogonalLoop=1;jettySize=auto;html=1;" parent="BaY0gyDMzciejpsv58w8-21" source="BaY0gyDMzciejpsv58w8-23" target="BaY0gyDMzciejpsv58w8-33" edge="1">
          <mxGeometry relative="1" as="geometry" />
        </mxCell>
        <mxCell id="BaY0gyDMzciejpsv58w8-23" value="查询出active的Elite促销&amp;nbsp;" style="rounded=1;whiteSpace=wrap;html=1;fillColor=none;align=center;verticalAlign=middle;" parent="BaY0gyDMzciejpsv58w8-21" vertex="1">
          <mxGeometry x="630" y="85" width="120" height="60" as="geometry" />
        </mxCell>
        <mxCell id="BaY0gyDMzciejpsv58w8-32" value="&lt;span&gt;检查所有的PromotionRule 条件&lt;/span&gt;" style="rhombus;whiteSpace=wrap;html=1;fillColor=none;align=center;verticalAlign=middle;" parent="BaY0gyDMzciejpsv58w8-21" vertex="1">
          <mxGeometry x="1070" y="40" width="130" height="150" as="geometry" />
        </mxCell>
        <mxCell id="BaY0gyDMzciejpsv58w8-38" style="edgeStyle=orthogonalEdgeStyle;rounded=0;orthogonalLoop=1;jettySize=auto;html=1;entryX=0;entryY=0.5;entryDx=0;entryDy=0;" parent="BaY0gyDMzciejpsv58w8-21" source="BaY0gyDMzciejpsv58w8-33" target="BaY0gyDMzciejpsv58w8-32" edge="1">
          <mxGeometry relative="1" as="geometry" />
        </mxCell>
        <mxCell id="BaY0gyDMzciejpsv58w8-33" value="&lt;span&gt;检查 促销&amp;nbsp;match type&amp;nbsp;&lt;/span&gt;" style="rhombus;whiteSpace=wrap;html=1;fillColor=none;align=center;verticalAlign=middle;" parent="BaY0gyDMzciejpsv58w8-21" vertex="1">
          <mxGeometry x="840" y="50" width="110" height="130" as="geometry" />
        </mxCell>
        <mxCell id="BaY0gyDMzciejpsv58w8-30" value="non-pos" style="text;html=1;align=center;verticalAlign=middle;resizable=0;points=[];autosize=1;strokeColor=none;" parent="BaY0gyDMzciejpsv58w8-21" vertex="1">
          <mxGeometry x="570" y="180" width="60" height="20" as="geometry" />
        </mxCell>
        <mxCell id="BaY0gyDMzciejpsv58w8-43" value="action result" style="text;html=1;strokeColor=none;fillColor=none;align=center;verticalAlign=middle;whiteSpace=wrap;rounded=0;" parent="BaY0gyDMzciejpsv58w8-21" vertex="1">
          <mxGeometry x="1141" y="10" width="40" height="20" as="geometry" />
        </mxCell>
        <mxCell id="BaY0gyDMzciejpsv58w8-50" style="edgeStyle=orthogonalEdgeStyle;rounded=0;orthogonalLoop=1;jettySize=auto;html=1;entryX=0.5;entryY=1;entryDx=0;entryDy=0;" parent="WIyWlLk6GJQsqaUBKTNV-1" source="BaY0gyDMzciejpsv58w8-36" target="BaY0gyDMzciejpsv58w8-40" edge="1">
          <mxGeometry relative="1" as="geometry" />
        </mxCell>
        <mxCell id="BaY0gyDMzciejpsv58w8-36" value="kafka" style="shape=cylinder3;whiteSpace=wrap;html=1;boundedLbl=1;backgroundOutline=1;size=15;" parent="WIyWlLk6GJQsqaUBKTNV-1" vertex="1">
          <mxGeometry x="1185" y="460" width="60" height="100" as="geometry" />
        </mxCell>
        <mxCell id="BaY0gyDMzciejpsv58w8-37" value="topic:&amp;nbsp; CDC_WTCPH_TIER_PROMOTION" style="text;html=1;strokeColor=none;fillColor=none;align=center;verticalAlign=middle;whiteSpace=wrap;rounded=0;" parent="WIyWlLk6GJQsqaUBKTNV-1" vertex="1">
          <mxGeometry x="1330" y="510" width="40" height="20" as="geometry" />
        </mxCell>
        <mxCell id="BaY0gyDMzciejpsv58w8-39" style="edgeStyle=orthogonalEdgeStyle;rounded=0;orthogonalLoop=1;jettySize=auto;html=1;entryX=0.5;entryY=1;entryDx=0;entryDy=0;entryPerimeter=0;" parent="WIyWlLk6GJQsqaUBKTNV-1" source="BaY0gyDMzciejpsv58w8-32" target="BaY0gyDMzciejpsv58w8-36" edge="1">
          <mxGeometry relative="1" as="geometry" />
        </mxCell>
        <mxCell id="63SoW9NRa-P1MuBI8I9Q-0" value="匹配成功" style="text;html=1;strokeColor=none;fillColor=none;align=center;verticalAlign=middle;whiteSpace=wrap;rounded=0;" vertex="1" parent="WIyWlLk6GJQsqaUBKTNV-1">
          <mxGeometry x="1050" y="675" width="60" height="20" as="geometry" />
        </mxCell>
      </root>
    </mxGraphModel>
  </diagram>
</mxfile>
